{"title":"18.Year.Old.Virgin-UNRATED{2009}DVDRip.aaaevilacharya","uid":6082110,"size":726535702,"categoryP":"video","categoryS":"movies","magnet":"?xt=urn:btih:07da3c89876290f85a9b185794c497ab961db3f3&amp;dn=18.Year.Old.Virgin-UNRATED%7B2009%7DDVDRip.aaaevilacharya&amp;tr=udp%3A%2F%2Ftracker.openbittorrent.com%3A80&amp;tr=udp%3A%2F%2Fopen.demonii.com%3A1337&amp;tr=udp%3A%2F%2Ftracker.coppersurfer.tk%3A6969&amp;tr=udp%3A%2F%2Fexodus.desync.com%3A6969","seeders":1,"leechers":0,"uploader":"achaevil","files":-1,"time":1294158231,"description":"General\n\nComplete name                    : 18.Year.Old.Virgin-UNRATED{2009}DVDRip.aaaevilacharya.mkv\nFormat                           : Matroska\nFile size                        : 693 MiB\nDuration                         : 1h 26mn\nOverall bit rate                 : 1 122 Kbps\nMovie name                       : 18.year.old.virgin-aaaevilacharya{TiRG}\nEncoded date                     : UTC 2011-01-05 01:04:33\n\n\nVideo\n\nID                               : 1\nFormat                           : MPEG-4 Visual\nFormat profile                   : Simple@L3\nFormat settings, BVOP            : No\nFormat settings, QPel            : No\nFormat settings, GMC             : No warppoints\nFormat settings, Matrix          : Default (H.263)\nCodec ID                         : XVID\nCodec ID/Hint                    : XviD\nDuration                         : 1h 26mn\nBit rate                         : 972 Kbps\nWidth                            : 720 pixels\nHeight                           : 384 pixels\nDisplay aspect ratio             : 2.35:1\nOriginal display aspect ratio    : 16:9\nFrame rate                       : 23.976 fps\nColor space                      : YUV\nChroma subsampling               : 4:2:0\nBit depth                        : 8 bits\nScan type                        : Progressive\nBits/(Pixel*Frame)               : 0.153\nStream size                      : 600 MiB (87%)\nTitle                            : 18.year.old.virgin-aaaevilacharya{TiRG}\n\nLanguage                         : English\n\nAudio\n\nID                               : 2\nFormat                           : MPEG Audio\nFormat version                   : Version 1\nFormat profile                   : Layer 3\nMode                             : Joint stereo\nCodec ID                         : A_MPEG/L3\nCodec ID/Hint                    : MP3\nDuration                         : 1h 26mn\nBit rate mode                    : Constant\nBit rate                         : 128 Kbps\nChannel(s)                       : 2 channels\nSampling rate                    : 48.0 KHz\nStream size                      : 79.0 MiB (11%)\nTitle                            : 18.year.old.virgin-aaaevilacharya{TiRG}\n\nLanguage                         : English\n\nSCREENSHOTS\n &lt;a href=&quot;\nhttp://img816.imageshack.us/img816/5862/vlcsnap2011010420h29m14.png&quot; rel=&quot;nofollow&quot; target=&quot;_NEW&quot;&gt;\nhttp://img816.imageshack.us/img816/5862/vlcsnap2011010420h29m14.png&lt;/a&gt; &lt;a href=&quot;\nhttp://img222.imageshack.us/img222/3937/t7oav410317871041985.jpg&quot; rel=&quot;nofollow&quot; target=&quot;_NEW&quot;&gt;\nhttp://img222.imageshack.us/img222/3937/t7oav410317871041985.jpg&lt;/a&gt; &lt;a href=&quot;\nhttp://img840.imageshack.us/img840/7230/vlcsnap2011010420h15m39.png&quot; rel=&quot;nofollow&quot; target=&quot;_NEW&quot;&gt;\nhttp://img840.imageshack.us/img840/7230/vlcsnap2011010420h15m39.png&lt;/a&gt; &lt;a href=&quot;\nhttp://img412.imageshack.us/img412/1184/vlcsnap2011010420h17m36.png&quot; rel=&quot;nofollow&quot; target=&quot;_NEW&quot;&gt;\nhttp://img412.imageshack.us/img412/1184/vlcsnap2011010420h17m36.png&lt;/a&gt; &lt;a href=&quot;\nhttp://img205.imageshack.us/img205/7938/vlcsnap2011010420h18m07.png&quot; rel=&quot;nofollow&quot; target=&quot;_NEW&quot;&gt;\nhttp://img205.imageshack.us/img205/7938/vlcsnap2011010420h18m07.png&lt;/a&gt; &lt;a href=&quot;\nhttp://img684.imageshack.us/img684/9889/vlcsnap2011010420h18m55.png&quot; rel=&quot;nofollow&quot; target=&quot;_NEW&quot;&gt;\nhttp://img684.imageshack.us/img684/9889/vlcsnap2011010420h18m55.png&lt;/a&gt; &lt;a href=&quot;\nhttp://img51.imageshack.us/img51/515/vlcsnap2011010420h23m22.png&quot; rel=&quot;nofollow&quot; target=&quot;_NEW&quot;&gt;\nhttp://img51.imageshack.us/img51/515/vlcsnap2011010420h23m22.png&lt;/a&gt; &lt;a href=&quot;\nhttp://img143.imageshack.us/img143/2760/vlcsnap2011010420h26m03.png&quot; rel=&quot;nofollow&quot; target=&quot;_NEW&quot;&gt;\nhttp://img143.imageshack.us/img143/2760/vlcsnap2011010420h26m03.png&lt;/a&gt; &lt;a href=&quot;\nhttp://img263.imageshack.us/img263/7295/vlcsnap2011010420h28m20.png&quot; rel=&quot;nofollow&quot; target=&quot;_NEW&quot;&gt;\nhttp://img263.imageshack.us/img263/7295/vlcsnap2011010420h28m20.png&lt;/a&gt; &lt;a href=&quot;\nhttp://img593.imageshack.us/img593/9110/vlcsnap2011010420h28m26.png&quot; rel=&quot;nofollow&quot; target=&quot;_NEW&quot;&gt;\nhttp://img593.imageshack.us/img593/9110/vlcsnap2011010420h28m26.png&lt;/a&gt; &lt;a href=&quot;\nhttp://img828.imageshack.us/img828/1588/vlcsnap2011010420h29m04.png&quot; rel=&quot;nofollow&quot; target=&quot;_NEW&quot;&gt;\nhttp://img828.imageshack.us/img828/1588/vlcsnap2011010420h29m04.png&lt;/a&gt;\n","torrent":{"xt":"urn:btih:07da3c89876290f85a9b185794c497ab961db3f3","amp;dn":"18.Year.Old.Virgin-UNRATED%7B2009%7DDVDRip.aaaevilacharya","amp;tr":["udp%3A%2F%2Ftracker.openbittorrent.com%3A80","udp%3A%2F%2Fopen.demonii.com%3A1337","udp%3A%2F%2Ftracker.coppersurfer.tk%3A6969","udp%3A%2F%2Fexodus.desync.com%3A6969"],"infoHash":"07da3c89876290f85a9b185794c497ab961db3f3","infoHashBuffer":{"type":"Buffer","data":[7,218,60,137,135,98,144,248,90,155,24,87,148,196,151,171,150,29,179,243]},"announce":[],"urlList":[]}}